<svg id="visual" viewBox="0 0 900 600" width="900" height="600" xmlns="http://www.w3.org/2000/svg" xmlns:xlink="http://www.w3.org/1999/xlink" version="1.1"><path d="M0 411L18.8 418.8C37.7 426.7 75.3 442.3 112.8 447C150.3 451.7 187.7 445.3 225.2 435.5C262.7 425.7 300.3 412.3 337.8 400.2C375.3 388 412.7 377 450.2 379C487.7 381 525.3 396 562.8 410.2C600.3 424.3 637.7 437.7 675.2 426.8C712.7 416 750.3 381 787.8 369.3C825.3 357.7 862.7 369.3 881.3 375.2L900 381L900 601L881.3 601C862.7 601 825.3 601 787.8 601C750.3 601 712.7 601 675.2 601C637.7 601 600.3 601 562.8 601C525.3 601 487.7 601 450.2 601C412.7 601 375.3 601 337.8 601C300.3 601 262.7 601 225.2 601C187.7 601 150.3 601 112.8 601C75.3 601 37.7 601 18.8 601L0 601Z" fill="#4359f5"></path><path d="M0 435L18.8 438.8C37.7 442.7 75.3 450.3 112.8 457.5C150.3 464.7 187.7 471.3 225.2 478.5C262.7 485.7 300.3 493.3 337.8 490C375.3 486.7 412.7 472.3 450.2 468.8C487.7 465.3 525.3 472.7 562.8 474.7C600.3 476.7 637.7 473.3 675.2 466.5C712.7 459.7 750.3 449.3 787.8 447.7C825.3 446 862.7 453 881.3 456.5L900 460L900 601L881.3 601C862.7 601 825.3 601 787.8 601C750.3 601 712.7 601 675.2 601C637.7 601 600.3 601 562.8 601C525.3 601 487.7 601 450.2 601C412.7 601 375.3 601 337.8 601C300.3 601 262.7 601 225.2 601C187.7 601 150.3 601 112.8 601C75.3 601 37.7 601 18.8 601L0 601Z" fill="#354bee"></path><path d="M0 524L18.8 530.3C37.7 536.7 75.3 549.3 112.8 555.5C150.3 561.7 187.7 561.3 225.2 551.5C262.7 541.7 300.3 522.3 337.8 514.7C375.3 507 412.7 511 450.2 508.8C487.7 506.7 525.3 498.3 562.8 494.8C600.3 491.3 637.7 492.7 675.2 502.7C712.7 512.7 750.3 531.3 787.8 532C825.3 532.7 862.7 515.3 881.3 506.7L900 498L900 601L881.3 601C862.7 601 825.3 601 787.8 601C750.3 601 712.7 601 675.2 601C637.7 601 600.3 601 562.8 601C525.3 601 487.7 601 450.2 601C412.7 601 375.3 601 337.8 601C300.3 601 262.7 601 225.2 601C187.7 601 150.3 601 112.8 601C75.3 601 37.7 601 18.8 601L0 601Z" fill="#263de6"></path></svg>