<?xml version="1.0" standalone="no"?><svg xmlns="http://www.w3.org/2000/svg" viewBox="0 0 1440 320" style="user-select: text;"><path fill="#0099ff" fill-opacity="1" d="M0,64L26.7,85.3C53.3,107,107,149,160,138.7C213.3,128,267,64,320,80C373.3,96,427,192,480,213.3C533.3,235,587,181,640,176C693.3,171,747,213,800,202.7C853.3,192,907,128,960,106.7C1013.3,85,1067,107,1120,122.7C1173.3,139,1227,149,1280,170.7C1333.3,192,1387,224,1413,240L1440,256L1440,320L1413.3,320C1386.7,320,1333,320,1280,320C1226.7,320,1173,320,1120,320C1066.7,320,1013,320,960,320C906.7,320,853,320,800,320C746.7,320,693,320,640,320C586.7,320,533,320,480,320C426.7,320,373,320,320,320C266.7,320,213,320,160,320C106.7,320,53,320,27,320L0,320Z" style="user-select: text;"></path></svg>